# xmcd
#
# Track frame offsets: 
#        150
#        66649
#        110157
#        145561
#        204325
#        246893
#        271677
#        295333
#        333046
#
# Disc length: 4719 seconds
#
# Revision: 0
# Processed by: cddbd v1.5.2PL0 Copyright (c) Steve Scherf et al.
# Submitted via: ExactAudioCopy v0.95b3
#
DISCID=88126d09
DTITLE=Johnny Winter  - The Country Squire, Ellington, CT  5-12-84  FL
DTITLE=AC
DYEAR=1900
DGENRE=
TTITLE0=Hideaway (Sen-Sa-Tion?)
TTITLE1=Don't Take Advantage Of Me
TTITLE2=Mad Dog
TTITLE3=I Smell Trouble
TTITLE4=Boney Maroni
TTITLE5=Boot Hill
TTITLE6=Johnny B. Goode
TTITLE7=Highway 61 Revisited
TTITLE8=It's My Soul
EXTD=
EXTT0=
EXTT1=
EXTT2=
EXTT3=
EXTT4=
EXTT5=
EXTT6=
EXTT7=
EXTT8=
PLAYORDER=
